<svg style="display: none" xmlns="http://www.w3.org/2000/svg" xmlns:xlink="http://www.w3.org/1999/xlink">

	<svg id="cross" xmlns="http://www.w3.org/2000/svg" viewBox="0 0 15 15">
		<path d="M9.35593 7.87438L14.6592 2.57109L12.8915 0.803319L7.58816 6.10661L2.28486 0.803314L0.517096 2.57108L5.8204 7.87438L0.51709 13.1777L2.28486 14.9455L7.58816 9.64215L12.8915 14.9454L14.6592 13.1777L9.35593 7.87438Z"/>
	</svg>

	<svg id="bell" xmlns="http://www.w3.org/2000/svg" xmlns:xlink="http://www.w3.org/1999/xlink" version="1.1" x="0px" y="0px" viewBox="0 0 1000 1000" enable-background="new 0 0 1000 1000" xml:space="preserve">
		<g><path d="M820.8,423.2c0-249.1-134-333.8-259.3-352.7c0-1.3,0.3-2.6,0.3-4.1C561.8,35,533.9,10,500,10s-60.7,25-60.7,56.4c0,1.5,0,2.8,0.3,4.1C314,89.6,179.2,174.6,179.2,423.7c0,290.4-72.2,321.6-169.2,403.2h980C893.5,745,820.8,713.6,820.8,423.2z"/><path d="M500.5,990c68.4,0,124.5-50.8,131.9-109.7H368.6C375.7,939.2,432.1,990,500.5,990z"/></g>
	</svg>

	<svg id="play" version="1.1" xmlns="http://www.w3.org/2000/svg" xmlns:xlink="http://www.w3.org/1999/xlink" x="0px" y="0px"
	 viewBox="0 0 485.74 485.74" style="enable-background:new 0 0 485.74 485.74;" xml:space="preserve">
		<g>
			<g>
				<path d="M242.872,0C108.732,0,0.004,108.736,0.004,242.864c0,134.14,108.728,242.876,242.868,242.876
					c134.136,0,242.864-108.736,242.864-242.876C485.736,108.736,377.008,0,242.872,0z M338.412,263.94l-134.36,92.732
					c-16.776,11.588-30.584,4.248-30.584-16.316V145.38c0-20.556,13.808-27.9,30.584-16.312l134.32,92.732
					C355.136,233.384,355.176,252.348,338.412,263.94z"/>
			</g>
		</g>
		<g>
		</g>
		<g>
		</g>
		<g>
		</g>
		<g>
		</g>
		<g>
		</g>
		<g>
		</g>
		<g>
		</g>
		<g>
		</g>
		<g>
		</g>
		<g>
		</g>
		<g>
		</g>
		<g>
		</g>
		<g>
		</g>
		<g>
		</g>
		<g>
		</g>
	</svg>

	<svg id="pause" xmlns="http://www.w3.org/2000/svg" xmlns:xlink="http://www.w3.org/1999/xlink" version="1.1" x="0px" y="0px" viewBox="0 0 300.003 300.003" style="enable-background:new 0 0 300.003 300.003;" xml:space="preserve">
		<g>
			<g>
				<path d="M150.001,0c-82.838,0-150,67.159-150,150c0,82.838,67.162,150.003,150,150.003c82.843,0,150-67.165,150-150.003    C300.001,67.159,232.846,0,150.001,0z M134.41,194.538c0,9.498-7.7,17.198-17.198,17.198s-17.198-7.7-17.198-17.198V105.46    c0-9.498,7.7-17.198,17.198-17.198s17.198,7.7,17.198,17.198V194.538z M198.955,194.538c0,9.498-7.701,17.198-17.198,17.198    c-9.498,0-17.198-7.7-17.198-17.198V105.46c0-9.498,7.7-17.198,17.198-17.198s17.198,7.7,17.198,17.198V194.538z"/>
			</g>
		</g>
		<g>
		</g>
		<g>
		</g>
		<g>
		</g>
		<g>
		</g>
		<g>
		</g>
		<g>
		</g>
		<g>
		</g>
		<g>
		</g>
		<g>
		</g>
		<g>
		</g>
		<g>
		</g>
		<g>
		</g>
		<g>
		</g>
		<g>
		</g>
		<g>
		</g>
	</svg>

	<svg id="stop" xmlns="http://www.w3.org/2000/svg" xmlns:xlink="http://www.w3.org/1999/xlink" version="1.1" x="0px" y="0px" viewBox="0 0 455 455" style="enable-background:new 0 0 455 455;" xml:space="preserve">
		<g>
			<g>
				<path d="M227.5,0C101.761,0,0,101.75,0,227.5C0,353.239,101.75,455,227.5,455C353.24,455,455,353.25,455,227.5    C455,101.761,353.25,0,227.5,0z M308.27,289.139c0,10.548-8.582,19.13-19.131,19.13H165.862c-10.548,0-19.13-8.582-19.13-19.13    V165.861c0-10.548,8.582-19.13,19.13-19.13h123.277c10.549,0,19.131,8.582,19.131,19.13V289.139z"/>
			</g>
		</g>
		<g>
		</g>
		<g>
		</g>
		<g>
		</g>
		<g>
		</g>
		<g>
		</g>
		<g>
		</g>
		<g>
		</g>
		<g>
		</g>
		<g>
		</g>
		<g>
		</g>
		<g>
		</g>
		<g>
		</g>
		<g>
		</g>
		<g>
		</g>
		<g>
		</g>
	</svg>

</svg>